# xmcd CD database file
#
# Track frame offsets:
#	150
#	26623
#	49999
#	74825
#	95914
#	112745
#	136042
#	173387
#	191848
#	214494
#	238960
#	264479
#
# Disc length: 3694 seconds
#
# Revision: 1
# Processed by: cddbd v1.5.1PL0 Copyright (c) Steve Scherf et al.
# Submitted via: CDex 1.50
#
DISCID=b50e6c0c
DTITLE=Various Artist - Nu Jazz
DYEAR=2004
DGENRE=Jazz
TTITLE0=Please Don't Leave (The essential mix)
TTITLE1=Karins Kerma
TTITLE2=Naturally
TTITLE3=Yunowhatthislifeez (Motor City Mix)
TTITLE4=Summer Sun (Original Version)
TTITLE5=Round Midnight
TTITLE6=Coffee Talk (Yukihiro Fukutomi Remix)
TTITLE7=Fuoco Fatuo (Performed by Koop)
TTITLE8=Quiet Night (Nicola Conte "Out of The Cool" Version
TTITLE9=Doo You Bop
TTITLE10=Hit The Road Jack (Pé Na éstrada)
TTITLE11=Q Baiano
EXTD=YEAR: 2004
EXTT0=
EXTT1=
EXTT2=
EXTT3=
EXTT4=
EXTT5=
EXTT6=
EXTT7=
EXTT8=
EXTT9=
EXTT10=
EXTT11=
PLAYORDER=
